# xmcd
#
# Track frame offsets:
#	150
#	20548
#	41528
#	57700
#	80837
#
# Disc length: 1301
#
# Revision: 2
# Processed by: cddbd v1.5.1PL0 Copyright (c) Steve Scherf et al.
# Submitted via: CDex 1.50Beta5
# Normalized: r1:TRMNUM
#
DISCID=40051305
DTITLE=花*花 - コモリウタ
DYEAR=2003
DGENRE=Pop
TTITLE0=童神
TTITLE1=朱い馬
TTITLE2=風の花
TTITLE3=おやすみのうた (26ver.)
TTITLE4=竹田の子守唄
EXTD=
EXTT0=
EXTT1=
EXTT2=
EXTT3=
EXTT4=
PLAYORDER=
